<svg xmlns="http://www.w3.org/2000/svg" width="1476.9313mm" height="300mm" viewBox="0 0 1476.9313 300">
    <path d="m-253.533 136.272-17.988 22.693 17.976 22.725h16.109s-17.776-22.192-18.194-22.725c.418-.543 18.194-22.693 18.194-22.693h-15.88zM-286.396 181.69h13.704v-68.137h-13.704zM-3.976 135.226c-4.956 0-10.054 2.683-13.099 7.475-2.533-4.514-6.49-7.475-13.057-7.475-3.638 0-9.227 1.746-12.677 6.646v-5.6h-12.152v45.418H-42v-23.438c0-9.146 3.059-12.506 7.765-12.506 5.394 0 5.841 5.323 5.841 9.595v26.35h12.95v-23.439c0-9.146 3.063-12.506 7.777-12.506 5.382 0 5.823 5.323 5.823 9.595v26.35h12.955V152.64c0-12.048-5.85-17.414-15.087-17.414"
          style="fill:#FFFFFF;fill-opacity:1;fill-rule:nonzero;stroke:none;stroke-width:.8319"
          transform="translate(1429.082 -489.034) scale(4.30664)"/>
    <path d="M-214.966 145.546c-6.9 0-12.501 6.018-12.501 13.456 0 7.426 5.6 13.45 12.5 13.45 6.906 0 12.508-6.024 12.508-13.45 0-7.438-5.602-13.456-12.507-13.456m24.826 13.456c0 13.371-11.11 24.211-24.826 24.211-13.703 0-24.816-10.84-24.816-24.21 0-13.378 11.113-24.218 24.816-24.218 13.715 0 24.826 10.84 24.826 24.217M-150.522 140.217c-2.911-2.169-9.456-5.371-17.05-5.371-5.758 0-11.208 1.794-14.586 5.021-2.628 2.519-4.024 5.83-4.024 9.57 0 9.674 7.3 11.734 13.153 13.402 4.345 1.226 8.114 2.199 8.114 5.595 0 1.42-.518 2.58-1.522 3.431-1.618 1.384-4.12 1.668-5.903 1.5-3.764-.4-7.631-2.079-10.742-4.732l-.544-.46-4.502 9.185.37.278c4.048 3.111 10.53 5.31 16.113 5.48 6.32.187 12.102-1.626 15.727-5.01 2.865-2.67 4.32-6.132 4.32-10.282 0-10.073-7.925-12.369-14.222-14.217-3.982-1.154-7.117-2.08-7.117-4.6 0-1.225.428-2.234 1.292-3.007 1.203-1.083 3.22-1.644 5.414-1.51 4.037.246 8.393 2.385 10.85 4.15zM-86.506 172.452c-6.906 0-12.5-6.025-12.5-13.45 0-7.438 5.594-13.456 12.5-13.456 6.9 0 12.5 6.018 12.5 13.456 0 7.425-5.6 13.45-12.5 13.45m0-37.667c-13.702 0-24.807 10.84-24.807 24.217 0 1.009.06 2.006.18 2.973.035.248.062.501.102.75.23 1.34-.193 2.464-.603 3.255a6.23 6.23 0 0 1-.248.441c-2.24 3.632-6.08 6.03-10.435 6.03-6.907 0-12.508-6.024-12.508-13.449 0-7.438 5.6-13.456 12.508-13.456 1.878 0 3.667.46 5.27 1.275l5.631-9.552a25.168 25.168 0 0 0-10.901-2.484c-13.715 0-24.82 10.84-24.82 24.217 0 13.372 11.105 24.211 24.82 24.211 7.032 0 13.384-2.87 17.908-7.462 4.508 4.598 10.87 7.462 17.903 7.462 13.716 0 24.815-10.84 24.815-24.21 0-13.378-11.099-24.218-24.815-24.218"
          style="fill:#FFFFFF;fill-opacity:1;fill-rule:nonzero;stroke:none;stroke-width:.8319"
          transform="translate(1429.082 -489.034) scale(4.30664)"/>
</svg>